<svg width="24" height="24" viewBox="0 0 24 24" fill="none" xmlns="http://www.w3.org/2000/svg">
<path d="M12.5 22C14.5767 22 16.6068 21.3842 18.3335 20.2304C20.0602 19.0767 21.406 17.4368 22.2007 15.5182C22.9954 13.5996 23.2034 11.4884 22.7982 9.45155C22.3931 7.41475 21.3931 5.54383 19.9246 4.07538C18.4562 2.60693 16.5852 1.6069 14.5484 1.20176C12.5116 0.796615 10.4004 1.00455 8.48182 1.79927C6.5632 2.59399 4.92332 3.9398 3.76957 5.66652C2.61581 7.39323 2 9.4233 2 11.5C2 13.236 2.42 14.8717 3.16667 16.3148L2 22L7.68516 20.8333C9.12716 21.5788 10.7652 22 12.5 22Z" stroke="black" stroke-width="1.5" stroke-linecap="round" stroke-linejoin="round"/>
</svg>
