<svg width="24" height="24" viewBox="0 0 24 24" fill="none" xmlns="http://www.w3.org/2000/svg">
<g clip-path="url(#clip0_391_15803)">
<path d="M17.1505 3.42245L18.864 1.71011C19.3183 1.25581 19.9345 1.00059 20.577 1.00059C21.2195 1.00059 21.8356 1.25581 22.2899 1.71011C22.7442 2.16441 22.9994 2.78058 22.9994 3.42306C22.9994 4.06554 22.7442 4.6817 22.2899 5.136L20.5776 6.84956M17.1505 3.42245L10.7534 9.81956C9.47614 11.098 8.83692 11.736 8.40181 12.5146C7.9667 13.2931 7.52915 15.1301 7.11115 16.8889C8.8687 16.4709 10.7069 16.0333 11.4855 15.5982C12.264 15.1631 12.9033 14.5239 14.1805 13.2467L20.5776 6.84956M17.1505 3.42245L20.5776 6.84956" stroke="black" stroke-width="1.5" stroke-linecap="round" stroke-linejoin="round"/>
<path d="M23 12C23 17.1859 23 19.7782 21.3891 21.3891C19.7782 23 17.1847 23 12 23C6.81533 23 4.22178 23 2.61089 21.3891C1 19.7782 1 17.1847 1 12C1 6.81533 1 4.22178 2.61089 2.61089C4.22178 1 6.81533 1 12 1" stroke="black" stroke-width="1.5" stroke-linecap="round" stroke-linejoin="round"/>
</g>
<defs>
<clipPath id="clip0_391_15803">
<rect width="24" height="24" fill="white"/>
</clipPath>
</defs>
</svg>
