<svg width="24" height="24" viewBox="0 0 24 24" fill="none" xmlns="http://www.w3.org/2000/svg">
<path d="M18 7.25006C18.774 7.41006 19.359 7.67906 19.828 8.12606C21 9.24206 21 11.0381 21 14.6301C21 18.2221 21 20.0181 19.828 21.1341C18.656 22.2501 16.771 22.2501 13 22.2501H11C7.229 22.2501 5.343 22.2501 4.172 21.1341C3.001 20.0181 3 18.2221 3 14.6301C3 11.0381 3 9.24206 4.172 8.12606C4.642 7.67906 5.226 7.41006 6 7.25006M12.025 2.25006L12 14.2501M12.025 2.25006C11.8514 2.24784 11.6832 2.31021 11.553 2.42506C10.647 3.19006 9 5.17906 9 5.17906M12.025 2.25006C12.1812 2.25928 12.3297 2.32053 12.447 2.42406C13.353 3.19006 15 5.18006 15 5.18006" stroke="black" stroke-width="1.5" stroke-linecap="round" stroke-linejoin="round"/>
</svg>
